<?xml version="1.0" encoding="utf-8"?>
<!-- Generator: Adobe Illustrator 25.2.3, SVG Export Plug-In . SVG Version: 6.00 Build 0)  -->
<svg version="1.1" id="Layer_1" xmlns="http://www.w3.org/2000/svg" xmlns:xlink="http://www.w3.org/1999/xlink" x="0px" y="0px"
	 viewBox="0 0 420 420" style="enable-background:new 0 0 420 420;" xml:space="preserve">
<style type="text/css">
	.st0{fill:#016341;}
</style>
<g>
	<path class="st0" d="M108.8,85.3L104,90L92.1,78L79,90.9l11.9,12l-4.8,4.7l-27-27.3l4.8-4.7l11.2,11.3l13-12.9L77,62.7l4.8-4.7
		L108.8,85.3z"/>
	<path class="st0" d="M105.3,63.5c-5.9-10.3-3.7-20.8,6.1-26.4c9.8-5.6,19.9-2.1,25.8,8.2c5.9,10.3,3.8,20.8-6,26.4
		C121.4,77.3,111.2,73.8,105.3,63.5z M131.2,48.8c-4.6-8.1-11.5-10-17-6.8s-7.4,10-2.8,18.1c4.6,8.1,11.5,10,17,6.9
		S135.8,56.9,131.2,48.8z"/>
	<path class="st0" d="M179.2,13.4l6.9-1.7l0.3,39.5l-7.7,1.9l-13.2-27.1l0.7,30.1l-7.8,1.9l-17.8-35.2l7.1-1.7l12.9,27.4l-1-30.3
		l7.6-1.8l13.4,27.4L179.2,13.4z"/>
	<path class="st0" d="M217,50.2l2.4-38.3l6.7,0.4l-2.4,38.3L217,50.2z"/>
	<path class="st0" d="M237.7,18.6l1.2-5.5l30.1,6.8l-1.2,5.5l-11.8-2.7l-7.2,32l-6.6-1.5l7.2-32L237.7,18.6z"/>
	<path class="st0" d="M331.8,52.5l5.9,3.8l-28.5,27.3l-6.7-4.3l10.6-28.2l-21.4,21.2l-6.8-4.4l13.4-37.1l6.1,4l-11,28.2l21.3-21.6
		l6.5,4.2l-10.7,28.5L331.8,52.5z"/>
	<path class="st0" d="M333.9,79.2c8.9-7.7,19.7-7.6,27,0.9c7.4,8.5,5.9,19.1-3.1,26.9c-8.9,7.7-19.7,7.7-27.1-0.9
		C323.4,97.5,324.9,86.9,333.9,79.2z M353.3,101.7c7.1-6.1,7.6-13.2,3.4-18c-4.2-4.8-11.3-5.3-18.3,0.8c-7.1,6.1-7.6,13.2-3.5,18
		C339.1,107.3,346.2,107.8,353.3,101.7z"/>
	<path class="st0" d="M367.6,131.2l-2.9-5.8l-14.5,7.2l-3-6l34.4-17.1l5.4,11c5,10.2,5.3,16.5-2.3,20.3c-4.4,2.2-8.5,1.5-12.1-2.1
		L361,154.2l-3.4-6.8l10.9-14.5C368.3,132.4,368,131.8,367.6,131.2z M369.5,123l3,6c2.6,5.2,5.1,7.6,9.2,5.6c4.5-2.2,3.4-6.1,1-10.9
		l-2.9-5.8L369.5,123z"/>
	<path class="st0" d="M405.6,174.9l1.8,7.8L389,172.2l-18.8,20.2l-1.8-7.8l14.8-15.7l-7.2-4.1l-11.5,2.6l-1.5-6.6l37.5-8.5l1.5,6.6
		l-17.8,4L405.6,174.9z"/>
	<path class="st0" d="M398.7,195.9c7.2,0.1,10.7,7.6,10.6,14.7c-0.1,7.6-3.7,13.5-11.7,14.9l0.1-6.5c4.6-1,6-5,6.1-8.8
		c0-3-1.2-7.4-5-7.4c-3,0-4.5,2.4-5.2,5.6l-1,4.7c-1.4,6.7-4,13.1-11.7,13c-7.7-0.1-11.6-7.9-11.5-15.5c0.1-9.1,5.2-15.3,13.7-15.9
		l-0.1,6.6c-5.3,1.1-8,4.4-8.1,9.7c-0.1,4.6,1.9,8.2,5.6,8.3c3.9,0.1,5.3-4.2,6.1-7.8l1-4.6C388.9,200.7,392.1,195.8,398.7,195.9z"
		/>
	<path class="st0" d="M308.2,337.5l4.9-4.6l11.6,12.4l13.4-12.6l-11.6-12.4l4.9-4.6l26.3,28l-4.9,4.6l-10.9-11.6l-13.4,12.6
		l10.9,11.6l-4.9,4.6L308.2,337.5z"/>
	<path class="st0" d="M311,359.4c5.6,10.4,3.2,20.8-6.7,26.2s-20,1.6-25.6-8.8c-5.6-10.4-3.2-20.9,6.7-26.2
		C295.4,345.2,305.4,349,311,359.4z M284.8,373.5c4.4,8.2,11.2,10.3,16.8,7.3c5.6-3,7.7-9.8,3.2-18s-11.3-10.3-16.9-7.3
		C282.5,358.4,280.4,365.3,284.8,373.5z"/>
	<path class="st0" d="M235.8,407.6L229,409l0.7-39.4l7.8-1.7l12.5,27.5l0-30.1l7.9-1.7l16.9,35.7l-7.2,1.5L255.3,373l0.3,30.3
		L248,405l-12.6-27.7L235.8,407.6z"/>
	<path class="st0" d="M199,369.8l-3.4,38.3l-6.7-0.6l3.4-38.3L199,369.8z"/>
	<path class="st0" d="M177.5,400.8l-1.4,5.4l-30-7.6l1.4-5.4l11.7,3l8.1-31.8l6.5,1.7l-8.1,31.8L177.5,400.8z"/>
	<path class="st0" d="M84.3,364.5l-5.8-4l29.2-26.6l6.5,4.5l-11.4,27.9l21.9-20.7l6.6,4.6L117.1,387l-6-4.1l11.8-27.9l-21.8,21
		l-6.4-4.4l11.4-28.2L84.3,364.5z"/>
	<path class="st0" d="M83,337.8c-9.1,7.5-19.8,7.1-27-1.6s-5.4-19.3,3.8-26.8c9.1-7.5,19.9-7.2,27,1.6S92.1,330.3,83,337.8z
		 M64.1,314.8c-7.2,5.9-7.9,13-3.9,17.9s11.1,5.6,18.3-0.3s8-13,3.9-17.9S71.4,308.9,64.1,314.8z"/>
	<path class="st0" d="M50.6,284.9l2.7,5.9L68,284l2.8,6.1L36,306.3l-5.2-11.1c-4.8-10.3-4.9-16.6,2.8-20.2c4.5-2.1,8.5-1.3,12,2.4
		l12.1-15.3L61,269l-11.3,14.2C50,283.7,50.3,284.3,50.6,284.9z M48.5,293.1l-2.8-6.1c-2.4-5.2-4.9-7.7-9.1-5.8
		c-4.6,2.1-3.5,6-1.3,10.8l2.7,5.9L48.5,293.1z"/>
	<path class="st0" d="M13.8,240.3l-1.6-7.8l18.1,10.9l19.3-19.7l1.6,7.8L36,246.7l7.1,4.3l11.5-2.3l1.3,6.6l-37.7,7.5l-1.3-6.6
		l17.9-3.6L13.8,240.3z"/>
	<path class="st0" d="M21.5,219.8c-7.2-0.2-10.6-7.8-10.4-14.8c0.2-7.6,3.8-13.4,11.8-14.7l-0.2,6.5c-4.6,1-6.1,5-6.2,8.7
		c-0.1,3,1.1,7.4,4.9,7.5c3,0.1,4.5-2.3,5.2-5.6l1-4.7c1.5-6.7,4.1-13,11.8-12.8c7.7,0.2,11.5,8,11.3,15.6
		c-0.2,9.1-5.4,15.2-13.8,15.8l0.2-6.6c5.3-1,8-4.3,8.2-9.6c0.1-4.6-1.8-8.3-5.6-8.4c-3.9-0.1-5.4,4.1-6.1,7.7l-1,4.6
		C31.3,215,28,219.9,21.5,219.8z"/>
</g>
</svg>
